<svg id="iconmonstr-behance-1" xmlns="http://www.w3.org/2000/svg" width="30.082" height="18.801" viewBox="0 0 30.082 18.801">
  <path id="iconmonstr-behance-1-2" data-name="iconmonstr-behance-1" d="M27.574,7.507H18.8V5h8.774Zm2.163,12.534c-.554,1.626-2.543,3.76-6.394,3.76s-6.974-2.167-6.974-7.113c0-4.9,2.914-7.42,6.851-7.42,3.863,0,6.222,2.234,6.737,5.548a16.783,16.783,0,0,1,.119,2.682H20.017a3.376,3.376,0,0,0,5.751,2.543ZM20.1,15.027h6.223a2.8,2.8,0,0,0-3.1-2.781A2.871,2.871,0,0,0,20.1,15.027Zm-12,8.759H0V5.026H8.715c6.864.1,6.994,6.824,3.409,8.656C16.462,15.262,16.607,23.786,8.1,23.786ZM3.76,12.52H8.252c3.143,0,3.642-3.76-.391-3.76H3.76v3.76Zm4.25,3.76H3.76v3.78H7.948C11.777,20.061,11.542,16.281,8.01,16.281Z" transform="translate(0 -5)" fill="#cbcbcb"/>
</svg>
