<svg xmlns="http://www.w3.org/2000/svg" xmlns:xlink="http://www.w3.org/1999/xlink" width="156" height="78" viewBox="0 0 156 78">
  <defs>
    <clipPath id="clip-path">
      <rect id="Rectangle_20446" data-name="Rectangle 20446" width="156" height="78" transform="translate(778 657)" fill="none"/>
    </clipPath>
  </defs>
  <g id="Group_46633" data-name="Group 46633" transform="translate(-1325 -893)">
    <g id="Group_45735" data-name="Group 45735" transform="translate(547 236)">
      <rect id="Rectangle_20446-2" data-name="Rectangle 20446" width="156" height="78" transform="translate(778 657)" fill="none"/>
    </g>
    <g id="Group_45738" data-name="Group 45738" transform="translate(-177 0.808)">
      <g id="Group_45737" data-name="Group 45737" transform="translate(1533 912.192)">
        <g id="Layer_1" data-name="Layer 1">
          <path id="Path_61548" data-name="Path 61548" d="M32.028,1.28,15.922,0,.112,1.223S0,4.819,0,9.273c0,22.821,16.02,28.9,16.02,28.9S32.131,32.151,32.131,9.33c0-4.454-.112-8.056-.112-8.056" fill="#fff"/>
          <path id="Path_61549" data-name="Path 61549" d="M131.939,14.223c0-.236-.575-6.312-.575-6.312-.052-.6-.04-1.151-.04-1.151H131.3s-.095.541-.265,1.151c0,0-1.643,5.993-1.749,6.312h-.97c-.092-.288-1.726-6.33-1.726-6.33-.158-.6-.265-1.136-.265-1.136H126.3s0,.541-.043,1.136c0,0-.575,6.042-.575,6.33H124.24l1.027-9.543h1.706l1.643,6.117c.158.61.239,1.067.239,1.067h.029a9.176,9.176,0,0,1,.239-1.067l1.695-6.117h1.7l1.03,9.543Z" transform="translate(-88.495 -3.334)" fill="#fff"/>
          <path id="Path_61550" data-name="Path 61550" d="M161.718,4.514h1.628v7.48h-1.628Zm.814-1.289a.863.863,0,0,1-.892-.834.895.895,0,0,1,1.787,0,.863.863,0,0,1-.895.834" transform="translate(-115.135 -1.101)" fill="#fff"/>
          <path id="Path_61551" data-name="Path 61551" d="M177.086,4.4a2.368,2.368,0,0,0-.734-.083c-1.413,0-1.893,1.263-1.893,2.843,0,1.692.521,2.8,1.775,2.8a1.5,1.5,0,0,0,.84-.167Zm-.88,6.617c-2.12,0-3.346-1.416-3.346-3.786,0-2.443,1.277-3.9,3.148-3.9a3.789,3.789,0,0,1,1.079.138V0h1.628V10.487a4.968,4.968,0,0,1-2.509.541" transform="translate(-123.127)" fill="#fff"/>
          <path id="Path_61552" data-name="Path 61552" d="M202.529,4.4a2.382,2.382,0,0,0-.719-.083c-1.413,0-1.893,1.263-1.893,2.843,0,1.692.518,2.8,1.772,2.8a1.51,1.51,0,0,0,.84-.178Zm-.88,6.617c-2.123,0-3.349-1.416-3.349-3.786,0-2.443,1.28-3.9,3.148-3.9a3.824,3.824,0,0,1,1.082.138V0h1.626V10.487a4.964,4.964,0,0,1-2.506.541" transform="translate(-141.247)" fill="#fff"/>
          <rect id="Rectangle_20534" data-name="Rectangle 20534" width="1.626" height="10.89" transform="translate(64.792)" fill="#fff"/>
          <path id="Path_61553" data-name="Path 61553" d="M239.174,12.422c-.947,0-1.6.806-1.559,2.589l2.975-.469c0-1.513-.521-2.126-1.416-2.126m-1.467,3.453c.132,1.387.774,2.08,1.962,2.08a3.809,3.809,0,0,0,1.813-.414l.38,1.073a4.761,4.761,0,0,1-2.376.527c-2.04,0-3.335-1.372-3.335-3.9,0-2.44,1.188-3.855,3.07-3.855s2.946,1.318,2.877,3.827Z" transform="translate(-168.208 -8.106)" fill="#fff"/>
          <path id="Path_61554" data-name="Path 61554" d="M262.311,19.115a3.565,3.565,0,0,1-1.991-.541l.432-1.082a2.181,2.181,0,0,0,1.346.432,1.033,1.033,0,0,0,1.1-1.056c0-.639-.319-.941-1.053-1.234-1.346-.541-1.634-1.318-1.634-2.095a2.156,2.156,0,0,1,2.282-2.164,3.208,3.208,0,0,1,1.867.527l-.409.987a1.853,1.853,0,0,0-1.151-.417.958.958,0,0,0-1.027.984c0,.61.44.915,1.067,1.18,1.4.575,1.726,1.332,1.726,2.207a2.355,2.355,0,0,1-2.561,2.273" transform="translate(-185.424 -8.102)" fill="#fff"/>
          <path id="Path_61555" data-name="Path 61555" d="M283.174,12.422c-.949,0-1.6.806-1.562,2.589l2.975-.469c0-1.513-.518-2.126-1.413-2.126m-1.467,3.453c.135,1.387.774,2.08,1.959,2.08a3.821,3.821,0,0,0,1.815-.414l.38,1.073a4.77,4.77,0,0,1-2.377.527c-2.04,0-3.335-1.372-3.335-3.9,0-2.44,1.185-3.855,3.067-3.855s2.949,1.318,2.877,3.827Z" transform="translate(-199.548 -8.106)" fill="#fff"/>
          <path id="Path_61556" data-name="Path 61556" d="M307.382,11.86l-1.269,2.44h-.023l-1.217-2.44h-1.706l2,3.608-2.227,3.87h1.651l1.375-2.719H306l1.347,2.719h1.787l-2.253-3.982,2.04-3.5Z" transform="translate(-215.782 -8.448)" fill="#fff"/>
          <path id="Path_61557" data-name="Path 61557" d="M128.4,60.989a2.834,2.834,0,0,1-3.027-2.926V51.29h1.695v6.755a1.411,1.411,0,1,0,2.8,0V51.29h1.574v6.767a2.837,2.837,0,0,1-3.03,2.926" transform="translate(-89.3 -36.533)" fill="#fff"/>
          <path id="Path_61558" data-name="Path 61558" d="M156.772,65.6V60.29a1.142,1.142,0,0,0-1.295-1.249,2.543,2.543,0,0,0-1.119.21v6.33H152.73V58.527a6.372,6.372,0,0,1,2.814-.538c2.149,0,2.854,1.082,2.854,2.287V65.6Z" transform="translate(-108.788 -41.302)" fill="#fff"/>
          <path id="Path_61559" data-name="Path 61559" d="M178.65,51.13h1.626v7.48H178.65Zm.814-1.286a.84.84,0,1,1,.892-.831.863.863,0,0,1-.892.831" transform="translate(-127.251 -34.308)" fill="#fff"/>
          <path id="Path_61560" data-name="Path 61560" d="M192.356,65.93h-1.548l-2.348-7.48h1.726l1.269,4.828a5.513,5.513,0,0,1,.173,1.024h.029a6.919,6.919,0,0,1,.184-1.024l1.295-4.828h1.522Z" transform="translate(-134.238 -41.633)" fill="#fff"/>
          <path id="Path_61561" data-name="Path 61561" d="M215.434,59.032c-.949,0-1.6.8-1.559,2.589l2.975-.463c0-1.51-.521-2.12-1.416-2.12m-1.467,3.453c.135,1.387.774,2.08,1.959,2.08a3.775,3.775,0,0,0,1.815-.417l.388,1.067a4.736,4.736,0,0,1-2.385.524c-2.043,0-3.335-1.375-3.335-3.9,0-2.443,1.185-3.855,3.07-3.855s2.946,1.318,2.877,3.829Z" transform="translate(-151.298 -41.306)" fill="#fff"/>
          <path id="Path_61562" data-name="Path 61562" d="M241.41,59.256a1.9,1.9,0,0,0-1.519.055v6.312H238.26V58.549a6.906,6.906,0,0,1,3.47-.527Z" transform="translate(-169.711 -41.323)" fill="#fff"/>
          <path id="Path_61563" data-name="Path 61563" d="M254.488,65.725a3.542,3.542,0,0,1-1.988-.544l.432-1.079a2.2,2.2,0,0,0,1.349.429,1.033,1.033,0,0,0,1.108-1.053c0-.639-.322-.944-1.053-1.234-1.364-.541-1.643-1.318-1.643-2.095a2.156,2.156,0,0,1,2.282-2.164,3.208,3.208,0,0,1,1.867.527l-.4.987a1.835,1.835,0,0,0-1.151-.417.958.958,0,0,0-1.027.984c0,.61.44.915,1.067,1.18,1.4.575,1.726,1.332,1.726,2.2a2.355,2.355,0,0,1-2.561,2.276" transform="translate(-179.854 -41.302)" fill="#fff"/>
          <path id="Path_61564" data-name="Path 61564" d="M273.46,51.13h1.626v7.48H273.46Zm.814-1.286a.84.84,0,1,1,.892-.831.863.863,0,0,1-.892.831" transform="translate(-194.783 -34.308)" fill="#fff"/>
          <path id="Path_61565" data-name="Path 61565" d="M286.771,60.774A1.852,1.852,0,0,1,284.8,58.76V54.3H284V53.213h.8V51.562l1.628-.472v2.123H287.6V54.3h-1.171v4.37c0,.575.224.97.785.97a1.22,1.22,0,0,0,.385-.069v1.053a2.028,2.028,0,0,1-.826.155" transform="translate(-202.291 -36.391)" fill="#fff"/>
          <path id="Path_61566" data-name="Path 61566" d="M302.1,68.914h-1.726l1.171-2.984-2.374-7.48H300.9l1.24,4.842a4.856,4.856,0,0,1,.15,1.07h.029a6.78,6.78,0,0,1,.2-1.067l1.335-4.842h1.522Z" transform="translate(-213.096 -41.633)" fill="#fff"/>
          <path id="Path_61573" data-name="Path 61573" d="M28.211,49.8a19.076,19.076,0,0,0-7.129,1.557,1.286,1.286,0,0,1-.02-.863.521.521,0,0,0-.043-1.039.313.313,0,0,0-.075,0l-.083.017-.081.032-.032.014-.058.046-.055.046a1.837,1.837,0,0,0-.388,1.9.676.676,0,0,0-.371.469.6.6,0,0,0-.509-.043.665.665,0,0,0-.377.483.593.593,0,0,0-.515-.055.65.65,0,0,0-.374.495.575.575,0,0,0-.518-.063.642.642,0,0,0-.365.509.575.575,0,0,0-.529-.081.832.832,0,0,0-.288,1.085c.173.466.575.737.921.6a.607.607,0,0,0,.348-.455.6.6,0,0,0,.575.1.639.639,0,0,0,.351-.443.61.61,0,0,0,.575.086.639.639,0,0,0,.354-.434.621.621,0,0,0,.575.075.65.65,0,0,0,.36-.42.642.642,0,0,0,.558.063.478.478,0,0,0,.092-.049,1.128,1.128,0,0,1-.049.837h-.017a.524.524,0,0,0-.55.515.512.512,0,0,0,.765.452H21.3a1.525,1.525,0,0,0,.639-.961A2.3,2.3,0,0,0,21.841,53a16.091,16.091,0,0,1,4.356-.621,11.836,11.836,0,0,1,4.52.806c.472-.791,1.269-1.18,1.853-.863a1.657,1.657,0,0,1,.328,2.141l.863.863h5.2V55.22c0-.84-1.87-5.179-10.757-5.42" transform="translate(-11.627 -35.224)"/>
          <path id="Path_61574" data-name="Path 61574" d="M32.986,75.607h-.155a18.783,18.783,0,0,0-5.648,1.243,1.085,1.085,0,0,1-.032-.722.443.443,0,0,0-.04-.883.371.371,0,0,0-.063,0,.318.318,0,0,0-.072,0,.333.333,0,0,0-.063.029h-.032l-.052.04-.04.037a1.5,1.5,0,0,0-.308,1.634.252.252,0,0,0-.055,0,.575.575,0,0,0-.322.388.521.521,0,0,0-.432.023.575.575,0,0,0-.322.394.5.5,0,0,0-.42-.029.55.55,0,0,0-.316.409.486.486,0,0,0-.432-.046.535.535,0,0,0-.3.417.452.452,0,0,0-.7.21.915.915,0,0,0,0,.659c.147.394.5.627.785.512a.512.512,0,0,0,.288-.38.512.512,0,0,0,.48.081.521.521,0,0,0,.288-.368.521.521,0,0,0,.478.069.532.532,0,0,0,.288-.354.532.532,0,0,0,.469.055.552.552,0,0,0,.288-.345.541.541,0,0,0,.466.046.527.527,0,0,0,.121-.075.846.846,0,0,1-.017.55h0a.443.443,0,1,0,0,.863.452.452,0,0,0,.207-.058h.029a1.306,1.306,0,0,0,.527-.806,1.672,1.672,0,0,0-.046-.924,13.335,13.335,0,0,1,3.7-.561,7.944,7.944,0,0,1,2.984.5c.455-.728,1.2-1.076,1.726-.777a1.516,1.516,0,0,1,.383,1.884l.808.739h4.18v-.095c0-.673-1.5-4.149-8.631-4.353" transform="translate(-16.466 -53.595)"/>
          <path id="Path_61575" data-name="Path 61575" d="M38.1,97.821h-.072a11.3,11.3,0,0,0-4.129.863l-.112.04a.7.7,0,0,1-.035-.6.388.388,0,0,0-.052-.774.213.213,0,0,0-.052,0,.344.344,0,0,0-.066,0l-.052.02h-.023l-.049.035-.04.037a1.3,1.3,0,0,0-.265,1.367h0a.455.455,0,0,0-.256.3.414.414,0,0,0-.334-.02.449.449,0,0,0-.256.314.4.4,0,0,0-.337-.029.455.455,0,0,0-.253.319.4.4,0,0,0-.339-.035.44.44,0,0,0-.247.328.374.374,0,0,0-.345-.04.386.386,0,0,0-.213.222.739.739,0,0,0,0,.538c.121.322.411.515.647.417a.411.411,0,0,0,.233-.288.411.411,0,0,0,.377.055.429.429,0,0,0,.236-.288.391.391,0,0,0,.607-.193.411.411,0,0,0,.371.04.44.44,0,0,0,.242-.268.429.429,0,0,0,.368.029.342.342,0,0,0,.072-.037.722.722,0,0,1-.032.5.388.388,0,1,0,0,.777.38.38,0,0,0,.178-.049l.029-.014a1.076,1.076,0,0,0,.463-.688,1.413,1.413,0,0,0-.046-.82,10.188,10.188,0,0,1,2.771-.417,5.783,5.783,0,0,1,1.962.288,1.14,1.14,0,0,1,1.421-.575,1.239,1.239,0,0,1,.351,1.525l.6.506h3.165v-.1c0-.673-1.151-3.165-6.488-3.289" transform="translate(-21.742 -69.338)"/>
          <path id="Path_61576" data-name="Path 61576" d="M42.783,17.51c-1.81,0-3.228-.3-3.228-.7,0-.48,1.62-.7,3.228-.7,1.551,0,3.225.222,3.225.7,0,.394-1.418.7-3.225.7m4.8-5.918a.682.682,0,0,0-.288-.069.711.711,0,0,0-.644.426.777.777,0,0,0-.066.288l-.383.144.256.734a13.267,13.267,0,0,1-.863,1.364,9.086,9.086,0,0,0-2.149-.394c-.046-.256-.2-1.151-.288-2l.535-.55-.288-.3a.716.716,0,1,0-1.367-.288.736.736,0,0,0,.058.288l-.288.3.532.55c-.075.826-.239,1.746-.288,2.014a7.846,7.846,0,0,0-2.1.371c-.2-.288-.541-.826-.846-1.364l.256-.734-.386-.144a.722.722,0,0,0-.063-.288.711.711,0,0,0-.647-.426.682.682,0,0,0-.288.078.751.751,0,0,0-.342.981.7.7,0,0,0,.164.233l-.141.4.711.27a25.3,25.3,0,0,1,.691,3.343c.138.791,1.7,1.364,3.74,1.364s3.576-.561,3.717-1.364c.017-.1.04-.247.069-.434a15.921,15.921,0,0,1,.621-2.906l.714-.273-.161-.406a.662.662,0,0,0,.164-.233.751.751,0,0,0-.342-.972" transform="translate(-26.763 -7.276)"/>
          <path id="Path_80303" data-name="Path 80303" d="M2.584,23.8a2.908,2.908,0,0,0-1.182.2v7.741a3.439,3.439,0,0,0,1.195.181c1.929,0,2.669-1.431,2.669-4.129,0-2.627-.861-3.989-2.683-3.989m.084,9.022A5.43,5.43,0,0,1,.135,32.3V23.5a5.325,5.325,0,0,1,2.472-.527c2.641,0,3.979,1.862,3.979,4.822s-1.209,5.018-3.918,5.018" transform="translate(35.79 5.478)" fill="#fff"/>
          <path id="Path_80304" data-name="Path 80304" d="M16.374,34.291c-1.877,0-2.652-.946-2.652-2.447v-5.2h1.224v5.24a1.4,1.4,0,0,0,1.5,1.543,2.516,2.516,0,0,0,1.345-.306V26.646h1.222v7.047a5.3,5.3,0,0,1-2.64.6" transform="translate(30.394 4.019)" fill="#fff"/>
          <path id="Path_80305" data-name="Path 80305" d="M28.206,25.019a2.248,2.248,0,0,0-1.223.292v5.741a2.476,2.476,0,0,0,1.057.181c1.542,0,2.154-1.292,2.154-3.183,0-1.64-.57-3.029-1.989-3.029m-.195,7.005a4.211,4.211,0,0,1-2.238-.529V20.974H26.98v3.668a3.02,3.02,0,0,1,1.528-.348c1.725,0,2.9,1.447,2.9,3.711,0,2.4-1.181,4.017-3.405,4.017" transform="translate(25.608 6.272)" fill="#fff"/>
          <path id="Path_80306" data-name="Path 80306" d="M41.484,29.793c-1.89.236-3.014.639-3.014,2.154,0,1.085.667,1.529,1.779,1.529a2.726,2.726,0,0,0,1.237-.25Zm-1.333,4.392c-1.946,0-2.851-.848-2.851-2.21,0-1.986,1.863-2.571,4.184-2.807v-.459c0-1.153-.7-1.487-1.654-1.487a4.179,4.179,0,0,0-1.808.472l-.292-.723a4.951,4.951,0,0,1,2.291-.556c1.391,0,2.613.6,2.613,2.433v4.808a5.235,5.235,0,0,1-2.487.529" transform="translate(21.029 4.112)" fill="#fff"/>
          <path id="Path_80307" data-name="Path 80307" d="M49.544,24.8h1.223v7.492H49.544Zm.614-1.447a.675.675,0,1,1,.708-.668.7.7,0,0,1-.708.668" transform="translate(16.177 5.862)" fill="#fff"/>
        </g>
      </g>
    </g>
  </g>
</svg>
