<svg xmlns="http://www.w3.org/2000/svg" width="156" height="78" viewBox="0 0 156 78">
  <g id="Group_46756" data-name="Group 46756" transform="translate(-794 -107)">
    <rect id="Rectangle_20446" data-name="Rectangle 20446" width="156" height="78" transform="translate(794 107)" fill="none"/>
    <g id="client-2" transform="translate(824.384 125.098)">
      <path id="Path_61362" data-name="Path 61362" d="M1970.113-1245.006c-.053.04-.123.07-.156.123-.345.553-.693,1.1-1.025,1.665q-1.289,2.173-2.554,4.356-1.187,2.045-2.353,4.1c-.5.876-1,1.753-1.479,2.636a4.055,4.055,0,0,0-.306.755c-.1.316.027.468.367.477a4.089,4.089,0,0,0,1.575-.362,1.476,1.476,0,0,1,.5-.143c-.1.43-.217.813-.286,1.205a1.058,1.058,0,0,1-.52.746,24.968,24.968,0,0,1-2.984,1.793,8.668,8.668,0,0,1-1.788.687,2.6,2.6,0,0,1-1.227.045,1.135,1.135,0,0,1-.811-1.09,4.948,4.948,0,0,1,.173-1.654c.156-.545.328-1.087.492-1.631.018-.063.029-.127.062-.268-.246.211-.441.359-.616.53a26.745,26.745,0,0,1-3.138,2.615,9.035,9.035,0,0,1-2.685,1.432,2.148,2.148,0,0,1-1.153.1,1.074,1.074,0,0,1-.794-1.178,9.44,9.44,0,0,1,.677-2.46,41.261,41.261,0,0,1,2.148-4.565c.8-1.479,1.621-2.95,2.434-4.421.286-.507.581-1,.866-1.511a3.677,3.677,0,0,0,.159-.351.2.2,0,0,0-.106-.121.2.2,0,0,0-.16-.005c-.174.041-.342.094-.516.143-.11.027-.223.042-.338.062a.666.666,0,0,1-.06-.166v-1.611c.133-.086.286-.192.447-.286,1.328-.783,2.653-1.575,3.985-2.342a3.139,3.139,0,0,1,1.091-.415c.9-.143,1.465.159,1.489,1.244a4.411,4.411,0,0,1-.275,1.388,11.651,11.651,0,0,1-1.371,2.683c-1.058,1.7-2.107,3.408-3.168,5.107-.345.553-.738,1.077-1.072,1.635a12.488,12.488,0,0,0-.592,1.212,1.838,1.838,0,0,0-.076.382.983.983,0,0,0,.274-.06c.459-.286.932-.573,1.367-.891a12.024,12.024,0,0,0,2.031-1.933c.645-.771,1.319-1.523,1.937-2.316,1.2-1.534,2.34-3.1,3.412-4.725q.843-1.274,1.692-2.546c.059-.089.122-.174.192-.274.276-.044.556-.1.836-.133.832-.109,1.667-.206,2.5-.323a.832.832,0,0,1,.784.218c.02.021.066.018.1.027Z" transform="translate(-1874.881 1254.826)" fill="#fff"/>
      <path id="Path_61363" data-name="Path 61363" d="M927.791-1354.3c.329-.2.664-.4.989-.616a9.654,9.654,0,0,0,2.466-2.179,2.5,2.5,0,0,0,.6-1.808,1.427,1.427,0,0,0-.107-.481,2.756,2.756,0,0,0-.757-.971,1.431,1.431,0,0,0-1.31-.24,4.73,4.73,0,0,0-1.681.9,14.649,14.649,0,0,0-2.841,3.02,14.193,14.193,0,0,0-1.757,2.955c-.187.448-.345.908-.524,1.36a21.883,21.883,0,0,1-1.269,2.617,32.163,32.163,0,0,1-2.864,4.241c-.464.584-.961,1.145-1.442,1.718l-.515.609c.143.183.261.355.392.518a30.091,30.091,0,0,0,3.06,3.27,11.092,11.092,0,0,0,2.839,2,3.744,3.744,0,0,0,1.568.409,4.139,4.139,0,0,0,2.458-.8,5.308,5.308,0,0,0,1.9-2.68c.03-.087.076-.17.123-.272h3.2a1.649,1.649,0,0,1-.119.255,19.315,19.315,0,0,1-2.663,3.093,15.625,15.625,0,0,1-4.094,2.8,12.5,12.5,0,0,1-3.225.956,5.633,5.633,0,0,1-3.053-.429,12.68,12.68,0,0,1-3.691-2.372c-.752-.67-1.454-1.395-2.174-2.1-.143-.143-.286-.313-.43-.478a2.577,2.577,0,0,0-.246.112c-1.1.67-2.2,1.363-3.316,2a8.057,8.057,0,0,1-2.178.938,6.433,6.433,0,0,1-3.026.045,2.428,2.428,0,0,1-.429-.158,1.014,1.014,0,0,1-.616-.961,3.436,3.436,0,0,1,1.36-2.877,9.227,9.227,0,0,1,3.481-1.718c.695-.195,1.395-.376,2.1-.521.6-.123,1.214-.186,1.861-.286.143-.325.286-.673.43-1.018.556-1.257,1.1-2.52,1.678-3.766.7-1.505,1.476-2.971,2.314-4.4a33.561,33.561,0,0,1,3.065-4.488,25.078,25.078,0,0,1,2.622-2.7,21.935,21.935,0,0,1,3.133-2.331,14.874,14.874,0,0,1,3.644-1.655,7.894,7.894,0,0,1,2.63-.332,3.714,3.714,0,0,1,3.207,2.032,4.232,4.232,0,0,1,.175,3.834,6.913,6.913,0,0,1-2.864,3.293,4.38,4.38,0,0,1-1.575.632,2.653,2.653,0,0,1-2.467-.772.559.559,0,0,1-.062-.086.521.521,0,0,1-.012-.1Z" transform="translate(-903.064 1363.484)" fill="#fff"/>
      <path id="Path_61364" data-name="Path 61364" d="M1565.578-1359.233c.657-.454,1.313-.88,1.94-1.346a6.06,6.06,0,0,0,1.862-2.032,2.022,2.022,0,0,0,.24-1.533,2.021,2.021,0,0,0-.917-1.251,1.3,1.3,0,0,0-1.086-.21,4.222,4.222,0,0,0-1.679.814,13.765,13.765,0,0,0-2.35,2.317,19.364,19.364,0,0,0-1.735,2.47,10.24,10.24,0,0,0-.848,1.8,23.534,23.534,0,0,1-2.128,4.373,35.774,35.774,0,0,1-2.824,3.965c-.39.477-.815.926-1.223,1.389-.084.1-.163.2-.262.315.3.375.573.751.881,1.09.7.772,1.4,1.552,2.139,2.291a13.68,13.68,0,0,0,2.742,2.135,4.892,4.892,0,0,0,2.1.708,3.317,3.317,0,0,0,1.014-.143,4.3,4.3,0,0,0,2.367-1.544,5.811,5.811,0,0,0,.95-1.7c.046-.132.111-.258.154-.356h3.1c.019,0,.036.026.079.059a1.875,1.875,0,0,1-.15.263c-.461.587-.919,1.176-1.393,1.753a14.518,14.518,0,0,1-2.072,2,15.179,15.179,0,0,1-2.983,1.921,12.648,12.648,0,0,1-3.129,1.028,5.727,5.727,0,0,1-3.208-.312,12.874,12.874,0,0,1-3.2-1.886,23.413,23.413,0,0,1-2.589-2.384c-.18-.188-.345-.391-.52-.584a2.573,2.573,0,0,0-.2-.177l-.514.311c-1.1.659-2.187,1.333-3.293,1.969a6.53,6.53,0,0,1-2.665.926,5.569,5.569,0,0,1-2.5-.18,1.049,1.049,0,0,1-.777-1.1,3.422,3.422,0,0,1,1.419-2.883,9.359,9.359,0,0,1,2.857-1.483,21.319,21.319,0,0,1,3.2-.787c.418-.077.844-.112,1.289-.169.059-.117.126-.228.173-.347a69.13,69.13,0,0,1,2.879-6.3,48.581,48.581,0,0,1,3.134-5.288,24.862,24.862,0,0,1,3.847-4.37,20.514,20.514,0,0,1,4.109-2.912,14.179,14.179,0,0,1,3.058-1.234,7.14,7.14,0,0,1,2.391-.258,3.671,3.671,0,0,1,2.819,1.506,4.508,4.508,0,0,1,.849,1.971,4.027,4.027,0,0,1-.1,1.694,6.5,6.5,0,0,1-1.622,2.8,6.98,6.98,0,0,1-1.959,1.459,3.63,3.63,0,0,1-1.89.4,2.612,2.612,0,0,1-1.718-.838.262.262,0,0,1-.057-.116Z" transform="translate(-1495.44 1368.122)" fill="#fff"/>
      <path id="Path_61365" data-name="Path 61365" d="M1316.85-1243.07c.627-.375,1.276-.765,1.927-1.146.716-.43,1.419-.859,2.148-1.265a8.564,8.564,0,0,1,1.163-.524,2.723,2.723,0,0,1,.662-.106,1.028,1.028,0,0,1,.782.285,1.029,1.029,0,0,1,.315.771,4.837,4.837,0,0,1-.345,1.837,11.745,11.745,0,0,1-1.225,2.36c-.978,1.583-1.952,3.169-2.94,4.745-.452.723-.945,1.422-1.4,2.148a4.26,4.26,0,0,0-.615,1.392.853.853,0,0,0,0,.135,1.212,1.212,0,0,0,.232-.051,7.2,7.2,0,0,0,1.575-1.03,19.471,19.471,0,0,0,2.564-2.6q1.59-1.871,3-3.882c1.1-1.56,2.148-3.15,3.219-4.734a1.224,1.224,0,0,0,.116-.179.545.545,0,0,1,.478-.315c.386-.05.773-.1,1.16-.155.646-.083,1.288-.171,1.936-.244a1.306,1.306,0,0,1,.454.03.448.448,0,0,1,.3.254.448.448,0,0,1-.017.4c-.052.106-.118.206-.179.308-.43.7-.859,1.388-1.28,2.091-.555.938-1.1,1.885-1.642,2.829-.666,1.145-1.336,2.291-2,3.447-.773,1.346-1.545,2.693-2.3,4.051a5.574,5.574,0,0,0-.385.954c-.089.263.026.409.3.43a3.1,3.1,0,0,0,1.253-.211c.233-.086.462-.182.7-.269a.7.7,0,0,1,.162-.017,1.034,1.034,0,0,1,0,.216c-.1.4-.211.8-.3,1.207a.629.629,0,0,1-.278.392,21.742,21.742,0,0,1-3.579,2.112,5.953,5.953,0,0,1-2,.59,1.173,1.173,0,0,1-1.362-.875,3.185,3.185,0,0,1,.014-1.41,11.831,11.831,0,0,1,.652-2.248.4.4,0,0,0,0-.117c-.153.013-.22.135-.308.218a31.534,31.534,0,0,1-3.544,2.961,11.691,11.691,0,0,1-2.03,1.169,4.3,4.3,0,0,1-1.233.325,1.16,1.16,0,0,1-1.178-.627,1.135,1.135,0,0,1-.056-.8,12.15,12.15,0,0,1,.763-2.507,45.682,45.682,0,0,1,1.97-4.178c.686-1.3,1.412-2.577,2.126-3.866.4-.724.828-1.432,1.233-2.163a.573.573,0,0,0,.127-.487c-.356-.077-.673.143-1.041.174a.583.583,0,0,1-.072-.176c-.01-.249-.01-.5-.012-.747C1316.85-1242.467,1316.85-1242.737,1316.85-1243.07Z" transform="translate(-1282.594 1254.794)" fill="#fff"/>
      <g id="Group_45532" data-name="Group 45532" transform="translate(0.358 35.031)">
        <path id="Path_61366" data-name="Path 61366" d="M911.778-869.41a2.511,2.511,0,0,1-1.018.222,2.483,2.483,0,0,1-1.166-.268,2.67,2.67,0,0,1-.872-.716,3.236,3.236,0,0,1-.546-1.041,4,4,0,0,1-.188-1.223,5.068,5.068,0,0,1,.175-1.344,3.451,3.451,0,0,1,.521-1.118,2.6,2.6,0,0,1,.859-.765,2.468,2.468,0,0,1,1.21-.286,3.175,3.175,0,0,1,.892.122,2.163,2.163,0,0,1,.749.385,2.214,2.214,0,0,1,.555.666,2.809,2.809,0,0,1,.306.974h-.774a1.813,1.813,0,0,0-.212-.639,1.46,1.46,0,0,0-.382-.439,1.622,1.622,0,0,0-.517-.258,2.14,2.14,0,0,0-.616-.086,1.687,1.687,0,0,0-.909.235,1.913,1.913,0,0,0-.619.62,2.865,2.865,0,0,0-.354.878,4.476,4.476,0,0,0-.115,1,3.592,3.592,0,0,0,.13.974,2.643,2.643,0,0,0,.382.823,1.932,1.932,0,0,0,.623.573,1.693,1.693,0,0,0,.859.213,1.892,1.892,0,0,0,.806-.163,1.7,1.7,0,0,0,.591-.448,1.934,1.934,0,0,0,.362-.67,2.419,2.419,0,0,0,.106-.829h-1.861v-.724h2.55v3.4h-.488l-.2-.806a1.973,1.973,0,0,1-.837.734Z" transform="translate(-907.989 875.957)" fill="#fff"/>
        <path id="Path_61367" data-name="Path 61367" d="M1001.551-873.789a1.8,1.8,0,0,1,1.3.453,1.647,1.647,0,0,1,.468,1.24,2.137,2.137,0,0,1-.24,1.033,1.252,1.252,0,0,1-.771.607v.019a.985.985,0,0,1,.411.181.969.969,0,0,1,.252.3,1.488,1.488,0,0,1,.143.394q.044.218.069.452a4.681,4.681,0,0,1,.024.48,4.638,4.638,0,0,0,.04.48,3.184,3.184,0,0,0,.093.448,1.145,1.145,0,0,0,.183.375h-.859a.571.571,0,0,1-.11-.272,3,3,0,0,1-.037-.385q-.009-.212-.016-.457a3.534,3.534,0,0,0-.049-.48q-.033-.235-.082-.448a1.111,1.111,0,0,0-.154-.371.788.788,0,0,0-.278-.253.938.938,0,0,0-.455-.095h-1.89v2.761h-.775v-6.463Zm.163,2.933a1.051,1.051,0,0,0,.429-.176.936.936,0,0,0,.286-.354,1.3,1.3,0,0,0,.11-.573,1.24,1.24,0,0,0-.245-.8.949.949,0,0,0-.79-.308h-1.923v2.254h1.614a2.84,2.84,0,0,0,.518-.046Z" transform="translate(-992.344 873.949)" fill="#fff"/>
        <path id="Path_61368" data-name="Path 61368" d="M1072.773-873.836a3.312,3.312,0,0,1,.525-1.081,2.619,2.619,0,0,1,.872-.752,2.524,2.524,0,0,1,1.214-.286,2.524,2.524,0,0,1,1.214.287,2.619,2.619,0,0,1,.872.752,3.343,3.343,0,0,1,.525,1.081,4.608,4.608,0,0,1,.175,1.271,4.59,4.59,0,0,1-.175,1.271,3.341,3.341,0,0,1-.525,1.081,2.579,2.579,0,0,1-.872.747,2.558,2.558,0,0,1-1.214.276,2.557,2.557,0,0,1-1.214-.276,2.578,2.578,0,0,1-.872-.747,3.321,3.321,0,0,1-.525-1.081,4.59,4.59,0,0,1-.175-1.271A4.6,4.6,0,0,1,1072.773-873.836Zm.716,2.237a2.769,2.769,0,0,0,.358.859,1.906,1.906,0,0,0,.627.611,1.739,1.739,0,0,0,.912.23,1.737,1.737,0,0,0,.913-.231,1.906,1.906,0,0,0,.627-.611,2.753,2.753,0,0,0,.358-.859,4.121,4.121,0,0,0,.115-.964,4.147,4.147,0,0,0-.115-.964,2.751,2.751,0,0,0-.358-.859,1.905,1.905,0,0,0-.627-.611,1.736,1.736,0,0,0-.913-.23,1.735,1.735,0,0,0-.912.23,1.907,1.907,0,0,0-.627.611,2.768,2.768,0,0,0-.358.859,4.153,4.153,0,0,0-.114.964,4.149,4.149,0,0,0,.11.964Z" transform="translate(-1060.874 875.956)" fill="#fff"/>
        <path id="Path_61369" data-name="Path 61369" d="M1167.734-867.8a2.237,2.237,0,0,1-1.7.62,2.463,2.463,0,0,1-1.755-.593,2.481,2.481,0,0,1-.631-1.887v-4.128h.775v4.128a1.872,1.872,0,0,0,.415,1.317,1.554,1.554,0,0,0,1.2.448,1.41,1.41,0,0,0,1.129-.448,1.965,1.965,0,0,0,.386-1.317v-4.128h.775v4.128A2.6,2.6,0,0,1,1167.734-867.8Z" transform="translate(-1145.446 873.95)" fill="#fff"/>
        <path id="Path_61370" data-name="Path 61370" d="M1249.25-873.789a1.7,1.7,0,0,1,1.332.5,2.034,2.034,0,0,1,.452,1.407,2.051,2.051,0,0,1-.453,1.412,1.667,1.667,0,0,1-1.332.5h-1.776v2.643h-.774v-6.463Zm-.26,3.1a1.288,1.288,0,0,0,.965-.3,1.2,1.2,0,0,0,.3-.888,1.19,1.19,0,0,0-.3-.884,1.329,1.329,0,0,0-.965-.3h-1.515v2.373Z" transform="translate(-1222.574 873.948)" fill="#fff"/>
        <path id="Path_61371" data-name="Path 61371" d="M1353.858-873.79v6.463h-.775v-6.463Z" transform="translate(-1321.38 873.95)" fill="#fff"/>
        <path id="Path_61372" data-name="Path 61372" d="M1382.96-873.79l3.064,5.242h.017v-5.242h.733v6.463h-.848l-3.04-5.188h-.016v5.188h-.733v-6.463Z" transform="translate(-1348.366 873.95)" fill="#fff"/>
        <path id="Path_61373" data-name="Path 61373" d="M1456.147-873.066v-.725h4.652v.725h-1.938v5.739h-.775v-5.739Z" transform="translate(-1417.103 873.95)" fill="#fff"/>
        <path id="Path_61374" data-name="Path 61374" d="M1534.518-873.79v.725h-3.243v2.055h3.022v.724h-3.022v2.237h3.267v.725H1530.5v-6.463Z" transform="translate(-1486.162 873.95)" fill="#fff"/>
        <path id="Path_61375" data-name="Path 61375" d="M1603.129-873.789a1.793,1.793,0,0,1,1.3.452,1.644,1.644,0,0,1,.468,1.24,2.138,2.138,0,0,1-.241,1.033,1.25,1.25,0,0,1-.77.607v.018a.982.982,0,0,1,.411.181.95.95,0,0,1,.252.3,1.483,1.483,0,0,1,.143.394q.045.224.068.452t.025.48a4.539,4.539,0,0,0,.04.48,3.14,3.14,0,0,0,.094.448,1.153,1.153,0,0,0,.184.375h-.859a.57.57,0,0,1-.11-.272,3.041,3.041,0,0,1-.037-.385q-.008-.212-.016-.457a3.5,3.5,0,0,0-.049-.48q-.033-.235-.081-.448a1.115,1.115,0,0,0-.155-.371.786.786,0,0,0-.277-.253.94.94,0,0,0-.455-.095h-1.89v2.76h-.775v-6.463Zm.163,2.933a1.058,1.058,0,0,0,.43-.176.937.937,0,0,0,.286-.353,1.3,1.3,0,0,0,.11-.573,1.241,1.241,0,0,0-.245-.8.95.95,0,0,0-.79-.308h-1.923v2.254h1.614a2.813,2.813,0,0,0,.519-.046Z" transform="translate(-1551.074 873.949)" fill="#fff"/>
        <path id="Path_61376" data-name="Path 61376" d="M1679.462-873.79l3.063,5.242h.017v-5.242h.733v6.463h-.848l-3.04-5.188h-.016v5.188h-.733v-6.463Z" transform="translate(-1623.748 873.95)" fill="#fff"/>
        <path id="Path_61377" data-name="Path 61377" d="M1754.853-873.79l2.274,6.463h-.859l-.636-1.946h-2.461l-.651,1.946h-.791l2.265-6.463Zm.537,3.793-.969-3.015h-.016L1753.42-870Z" transform="translate(-1691.636 873.95)" fill="#fff"/>
        <path id="Path_61378" data-name="Path 61378" d="M1816.249-873.066v-.725h4.652v.725h-1.939v5.739h-.774v-5.739Z" transform="translate(-1751.556 873.95)" fill="#fff"/>
        <path id="Path_61379" data-name="Path 61379" d="M1891.833-873.79v6.463h-.773v-6.463Z" transform="translate(-1821.04 873.95)" fill="#fff"/>
        <path id="Path_61380" data-name="Path 61380" d="M1915.828-873.836a3.324,3.324,0,0,1,.526-1.081,2.612,2.612,0,0,1,.872-.752,2.518,2.518,0,0,1,1.214-.286,2.525,2.525,0,0,1,1.214.286,2.628,2.628,0,0,1,.872.752,3.326,3.326,0,0,1,.525,1.081,4.555,4.555,0,0,1,.175,1.271,4.57,4.57,0,0,1-.175,1.271,3.331,3.331,0,0,1-.526,1.081,2.574,2.574,0,0,1-.872.747,2.556,2.556,0,0,1-1.215.276,2.553,2.553,0,0,1-1.214-.276,2.563,2.563,0,0,1-.872-.747,3.331,3.331,0,0,1-.525-1.081,4.58,4.58,0,0,1-.176-1.272A4.587,4.587,0,0,1,1915.828-873.836Zm.716,2.237a2.754,2.754,0,0,0,.359.859,1.9,1.9,0,0,0,.627.611,1.733,1.733,0,0,0,.912.231,1.734,1.734,0,0,0,.912-.231,1.9,1.9,0,0,0,.627-.611,2.782,2.782,0,0,0,.358-.859,4.152,4.152,0,0,0,.115-.964,4.166,4.166,0,0,0-.114-.964,2.788,2.788,0,0,0-.359-.859,1.915,1.915,0,0,0-.627-.611,1.731,1.731,0,0,0-.912-.231,1.733,1.733,0,0,0-.912.23,1.9,1.9,0,0,0-.627.612,2.748,2.748,0,0,0-.36.859,4.076,4.076,0,0,0-.114.964,4.116,4.116,0,0,0,.111.964Z" transform="translate(-1843.88 875.956)" fill="#fff"/>
        <path id="Path_61381" data-name="Path 61381" d="M2007.876-873.79l3.063,5.242h.017v-5.242h.734v6.463h-.848l-3.04-5.188h-.016v5.188h-.733v-6.463Z" transform="translate(-1928.769 873.95)" fill="#fff"/>
        <path id="Path_61382" data-name="Path 61382" d="M2083.267-873.79l2.273,6.463h-.859l-.636-1.946h-2.459l-.652,1.946h-.791l2.265-6.463Zm.539,3.793-.97-3.015h-.015l-.987,3.015Z" transform="translate(-1996.657 873.95)" fill="#fff"/>
        <path id="Path_61383" data-name="Path 61383" d="M2164.656-873.79v5.739h3.08v.724h-3.854v-6.463Z" transform="translate(-2074.428 873.95)" fill="#fff"/>
      </g>
    </g>
    <rect id="Rectangle_20446-2" data-name="Rectangle 20446" width="156" height="78" transform="translate(794 107)" fill="none"/>
  </g>
</svg>
