<svg id="Component_22_13" data-name="Component 22 – 13" xmlns="http://www.w3.org/2000/svg" width="23.448" height="23.448" viewBox="0 0 23.448 23.448">
  <path id="Subtraction_18" data-name="Subtraction 18" d="M6.065,12.13a6.065,6.065,0,1,1,6.064-6.064A6.072,6.072,0,0,1,6.065,12.13Zm0-9.771a3.707,3.707,0,1,0,3.7,3.709A3.712,3.712,0,0,0,6.065,2.359Z" transform="translate(5.871 5.871)" fill="#cbcbcb"/>
  <path id="Exclusion_50" data-name="Exclusion 50" d="M16.463,23.448H6.985A6.993,6.993,0,0,1,0,16.463V6.985A6.993,6.993,0,0,1,6.985,0h9.478a6.993,6.993,0,0,1,6.985,6.985v9.478A6.993,6.993,0,0,1,16.463,23.448ZM6.985,2.359A4.632,4.632,0,0,0,2.359,6.985v9.478A4.632,4.632,0,0,0,6.985,21.09h9.478a4.632,4.632,0,0,0,4.626-4.626V6.985a4.632,4.632,0,0,0-4.626-4.626ZM17.8,7.158a1.453,1.453,0,1,1,1.453-1.453A1.455,1.455,0,0,1,17.8,7.158Z" fill="#cbcbcb"/>
</svg>
