<svg xmlns="http://www.w3.org/2000/svg" width="23.949" height="23.95" viewBox="0 0 23.949 23.95">
  <g id="Component_23_1" data-name="Component 23 – 1" transform="translate(0.25 0.25)">
    <path id="Path_95112" data-name="Path 95112" d="M99.221,40.944a11.725,11.725,0,1,1,5.862-1.571,11.725,11.725,0,0,1-5.862,1.571Zm0-21.886a10.161,10.161,0,1,0,7.185,2.976A10.162,10.162,0,0,0,99.221,19.058Z" transform="translate(-87.497 -17.494)" fill="#cbcbcb" stroke="#cbcbcb" stroke-width="0.5"/>
    <path id="Path_95113" data-name="Path 95113" d="M121.087,153.03a28.068,28.068,0,0,1-10.317-2.212l.633-1.43c.125.055,12.639,5.526,18.985-1.688l1.172,1.032c-2.908,3.314-6.823,4.3-10.474,4.3Z" transform="translate(-109.73 -141.885)" fill="#cbcbcb" stroke="#cbcbcb" stroke-width="0.5"/>
    <path id="Path_95114" data-name="Path 95114" d="M145.566,290.612l-1.016-1.188c.461-.4,11.443-9.622,20.541-3.869l-.836,1.321c-8.121-5.135-18.587,3.666-18.688,3.736Z" transform="translate(-142.003 -271.783)" fill="#cbcbcb" stroke="#cbcbcb" stroke-width="0.5"/>
    <path id="Path_95115" data-name="Path 95115" d="M322.327,45.674l-1.212-.985c9.027-11.076.047-20.455-.344-20.846l1.118-1.094c.1.109,10.349,10.779.438,22.925Z" transform="translate(-310.353 -22.514)" fill="#cbcbcb" stroke="#cbcbcb" stroke-width="0.5"/>
  </g>
</svg>
