<svg xmlns="http://www.w3.org/2000/svg" width="156" height="78" viewBox="0 0 156 78">
  <g id="Group_46856" data-name="Group 46856" transform="translate(-1325 -205)">
    <rect id="Rectangle_20446" data-name="Rectangle 20446" width="156" height="78" transform="translate(1325 205)" fill="none"/>
    <path id="Shape" d="M77.666,31.071H0V0H77.678V31.071Z" transform="translate(1364.161 228.465)" fill="#fff" fill-rule="evenodd"/>
    <path id="Shape-2" data-name="Shape" d="M2,15.982c0,7.637,15.626,13.982,37.29,13.982S76.57,23.62,76.57,15.982,60.944,2,39.29,2,2,8.344,2,15.982Z" transform="translate(1363.715 228.018)" fill-rule="evenodd"/>
    <path id="Shape-3" data-name="Shape" d="M38.312,22.878a6.266,6.266,0,0,0,.824.967H30.73a3.7,3.7,0,0,0-.679-1.51c-.356-.523-2.282-3.379-2.282-3.379v3.922a1.982,1.982,0,0,0,.167.967h-7a1.982,1.982,0,0,0,.167-.967V13.553a1.982,1.982,0,0,0-.167-.967h7a1.982,1.982,0,0,0-.167.967v4.077s2.238-2.847,2.75-3.51a4.045,4.045,0,0,0,.871-1.532h7.3a7.866,7.866,0,0,0-1.514,1.456L34.5,17.229S37.866,22.237,38.312,22.878Zm2.2-9.325v9.325a1.982,1.982,0,0,1-.167.967H53.865V20.714a2.119,2.119,0,0,1-.991.163H47.185V19.4h5.467V17.032H47.185V15.543h5.691a2.255,2.255,0,0,1,.991.153v-3.12H40.349a2.044,2.044,0,0,1,.167.978Zm32.075,9.325a2.7,2.7,0,0,0,.546.967H65.811a2.047,2.047,0,0,0-.223-.967s-.112-.261-.268-.641l-.071-.163H61.035l-.067.174s-.123.315-.234.641a2.145,2.145,0,0,0-.19.967H54.767a2.828,2.828,0,0,0,.523-.967l3.462-9.325a2.018,2.018,0,0,0,.2-.967h9.76a1.618,1.618,0,0,0,.212.967C69.218,14.271,72.346,22.248,72.591,22.878Zm-8.26-3.184-1.024-2.608a5.664,5.664,0,0,1-.223-.739,4.271,4.271,0,0,1-.2.739c-.033.109-.468,1.25-.968,2.608ZM17.615,12.587H10a1.982,1.982,0,0,1,.167.967v9.325a1.982,1.982,0,0,1-.167.966h7.615a1.982,1.982,0,0,1-.167-.967V13.554a1.982,1.982,0,0,1,.167-.966Z" transform="translate(1361.929 225.787)" fill="#fff"/>
    <rect id="Rectangle_20446-2" data-name="Rectangle 20446" width="156" height="78" transform="translate(1325 205)" fill="none"/>
  </g>
</svg>
