<svg xmlns="http://www.w3.org/2000/svg" width="156" height="78" viewBox="0 0 156 78">
  <g id="Group_46757" data-name="Group 46757" transform="translate(-971 -107)">
    <rect id="Rectangle_20446" data-name="Rectangle 20446" width="156" height="78" transform="translate(971 107)" fill="none"/>
    <g id="client-3" transform="translate(998 119)">
      <path id="Path_61392" data-name="Path 61392" d="M196.175,182.77c.063-.214.113-.428.176-.629.164-.566.315-1.145.465-1.712l.3-1.17c.164-.578.327-1.157.481-1.749.113-.4.214-.8.315-1.2.152-.553.315-1.12.465-1.673.113-.415.226-.842.339-1.258s.226-.855.352-1.283c.113-.4.214-.818.327-1.221.012-.063.037-.12.05-.189a.233.233,0,0,1,.277-.189h3.127c.214,0,.251.076.189.29-.152.44-.29.88-.44,1.334-.176.553-.361,1.108-.541,1.673-.152.453-.29.906-.44,1.359s-.315.919-.465,1.384c-.138.44-.29.88-.428,1.323-.226.666-.44,1.346-.666,2.013s-.415,1.323-.629,1.988c-.2.617-.4,1.233-.617,1.85-.164.481-.315.968-.465,1.443-.1.327-.214.641-.327.956-.152.453-.29.919-.44,1.371s-.315.931-.465,1.41c-.113.339-.214.68-.327,1.019l-.641,1.963c-.152.465-.3.931-.44,1.4-.063.176-.12.352-.189.541a.165.165,0,0,1-.176.12h-3.686c-.189-.012-.226-.076-.152-.251.361-.906.742-1.8,1.108-2.7.361-.88.73-1.761,1.094-2.654.12-.315.265-.641.378-.962a.5.5,0,0,0,0-.3c-.12-.4-.265-.793-.39-1.182-.327-.981-.641-1.963-.968-2.944-.214-.641-.44-1.3-.654-1.938l-.68-2.076c-.176-.541-.339-1.082-.528-1.636l-.453-1.323c-.152-.453-.29-.906-.428-1.359-.138-.415-.277-.818-.415-1.233-.152-.481-.3-.962-.465-1.435-.138-.415-.277-.842-.415-1.258-.037-.12-.012-.164.113-.176h3.661c.277,0,.277,0,.352.265.164.579.315,1.17.481,1.749.138.5.29,1.007.44,1.509.152.553.3,1.12.453,1.673.1.39.214.781.327,1.157.113.428.226.855.352,1.283.113.39.214.781.327,1.17.113.415.241.83.352,1.258.113.4.214.8.327,1.2.088.339.189.666.29,1.007C196.136,182.77,196.163,182.77,196.175,182.77Z" transform="translate(-164.925 -149.035)" fill="#fff"/>
      <path id="Path_61393" data-name="Path 61393" d="M634.608,179.1v5.083a.385.385,0,0,1-.265.415,8.552,8.552,0,0,1-1.564.566q-.547.152-1.094.265c-.39.076-.781.113-1.17.164a21.837,21.837,0,0,1-2.868.076,8.278,8.278,0,0,1-1.85-.241,6.277,6.277,0,0,1-2.327-.993,3.814,3.814,0,0,1-1.309-1.548,8.15,8.15,0,0,1-.378-1.057,2.452,2.452,0,0,1-.1-.666,6.516,6.516,0,0,1,.088-1.712,4.625,4.625,0,0,1,.906-1.988,5.628,5.628,0,0,1,1.132-1.057,8.019,8.019,0,0,1,1.661-.868c.466-.176.943-.327,1.422-.465a8.755,8.755,0,0,1,.994-.226c.516-.1,1.032-.189,1.548-.277.037,0,.063-.012.1-.012.415-.037.83-.088,1.233-.12.189-.025.226-.051.226-.241a10.61,10.61,0,0,0-.012-1.094,2.156,2.156,0,0,0-1.271-1.938,3.839,3.839,0,0,0-1.635-.327,9.561,9.561,0,0,0-1.346.051,12.6,12.6,0,0,0-1.523.327c-.415.113-.818.29-1.233.428a3.244,3.244,0,0,0-.3.138c-.113.037-.152.012-.164-.113v-2.2c0-.241,0-.241.226-.327a11.785,11.785,0,0,1,1.975-.553,9.469,9.469,0,0,1,2.152-.226c.339.012.691.012,1.032,0a6.541,6.541,0,0,1,3.862,1.2,4.5,4.5,0,0,1,1.344,1.719,7.607,7.607,0,0,1,.44,1.5c.025.138.037.277.05.4.025.352.05.722.05,1.069C634.608,175.864,634.608,177.481,634.608,179.1Zm-3.636.578v-3.309c0-.088-.05-.12-.138-.113l-.579.076c-.466.088-.931.176-1.4.277a6.653,6.653,0,0,0-1.761.617,3.553,3.553,0,0,0-.962.7,3.3,3.3,0,0,0-.767,1.573,4.373,4.373,0,0,0,.113,2.239,2.273,2.273,0,0,0,.629.968,3.028,3.028,0,0,0,1.7.722c.378.037.767.037,1.145.037a4.52,4.52,0,0,0,1.737-.315c.251-.1.251-.1.251-.361.026-1.028.026-2.072.026-3.116Z" transform="translate(-543.448 -147.17)" fill="#fff"/>
      <path id="Path_61394" data-name="Path 61394" d="M12.87,178.6v5.221a.432.432,0,0,1-.29.465,9.385,9.385,0,0,1-1.548.541c-.566.12-1.145.265-1.711.352a12.409,12.409,0,0,1-1.535.12c-.629.025-1.246.012-1.875,0a9.758,9.758,0,0,1-1.484-.176,7.533,7.533,0,0,1-1.5-.415,4.675,4.675,0,0,1-2.262-1.757,4.291,4.291,0,0,1-.592-1.4,5.979,5.979,0,0,1-.152-1.7,4.706,4.706,0,0,1,1.7-3.488A7.6,7.6,0,0,1,3.8,175.141a13.8,13.8,0,0,1,1.825-.553c.6-.138,1.2-.241,1.825-.339.528-.088,1.057-.138,1.585-.2.189-.025.226-.051.226-.251a10.209,10.209,0,0,0-.051-1.246,2.114,2.114,0,0,0-1.548-1.887,5.9,5.9,0,0,0-2.39-.189,10.9,10.9,0,0,0-1.283.2,9.022,9.022,0,0,0-1.862.629c-.352.164-.361.164-.361-.241v-1.95c0-.265.012-.277.251-.361.465-.152.931-.3,1.4-.44a7.506,7.506,0,0,1,.767-.152c.251-.037.516-.088.767-.12.339-.037.666-.063,1.007-.076.44-.012.868,0,1.309,0a6.573,6.573,0,0,1,1.484.189,6.083,6.083,0,0,1,1.673.617,4.308,4.308,0,0,1,1.484,1.334,5.068,5.068,0,0,1,.692,1.5,7.727,7.727,0,0,1,.265,2.138C12.87,175.383,12.87,176.994,12.87,178.6Zm-3.6.742v-3.083a1.221,1.221,0,0,0-.012-.214.131.131,0,0,0-.164-.12c-.176.025-.361.037-.541.076-.592.113-1.182.2-1.761.352a6.455,6.455,0,0,0-1.724.7,2.9,2.9,0,0,0-1.283,1.585,4.161,4.161,0,0,0-.226,1.359,5.091,5.091,0,0,0,.1.981,2.575,2.575,0,0,0,2.327,2.088,6.013,6.013,0,0,0,3.02-.265c.226-.088.251-.1.251-.352.012-1.025.012-2.063.012-3.113Z" transform="translate(0.085 -146.82)" fill="#fff"/>
      <path id="Path_61395" data-name="Path 61395" d="M314.234,171.724a1.534,1.534,0,0,1-.025-.226v-2.152c0-.2.012-.214.2-.29a10.858,10.858,0,0,1,1.963-.553,9.058,9.058,0,0,1,2.013-.226c.516.012,1.032,0,1.548.012a6.669,6.669,0,0,1,1.924.352,5.225,5.225,0,0,1,1.472.742,4.386,4.386,0,0,1,.981,1.007,4.74,4.74,0,0,1,.7,1.484,5.935,5.935,0,0,1,.214,1.145c.051.541.051,1.082.051,1.623,0,3.145,0,6.278.012,9.423a.455.455,0,0,1-.315.5,9.487,9.487,0,0,1-1.523.528c-.566.12-1.132.277-1.711.352a15.906,15.906,0,0,1-1.724.138c-.592.025-1.17.012-1.762,0a5.62,5.62,0,0,1-.793-.076c-.428-.063-.842-.138-1.258-.241a8.485,8.485,0,0,1-.906-.3,4.5,4.5,0,0,1-1.221-.692,4.21,4.21,0,0,1-1.422-1.963,5.5,5.5,0,0,1-.29-2.013,4.81,4.81,0,0,1,.93-2.842,5.25,5.25,0,0,1,1.812-1.51,12.025,12.025,0,0,1,1.548-.68,14.48,14.48,0,0,1,1.61-.428c.39-.1.767-.176,1.157-.251.339-.063.68-.088,1.019-.138.361-.037.722-.088,1.082-.12a.161.161,0,0,0,.164-.176,7.582,7.582,0,0,0-.088-1.6,2.123,2.123,0,0,0-1.459-1.585,5.726,5.726,0,0,0-2.064-.226,8.007,8.007,0,0,0-1.435.189,11.135,11.135,0,0,0-2.239.742A1.292,1.292,0,0,0,314.234,171.724Zm7.448,7.875v-3.247c0-.164-.025-.176-.189-.152-.481.076-.956.164-1.435.241a7.82,7.82,0,0,0-2.064.617,3.342,3.342,0,0,0-1.283.968,3.187,3.187,0,0,0-.692,2.025c0,.251-.012.491,0,.742a2.767,2.767,0,0,0,.629,1.661,2.8,2.8,0,0,0,1.85.906c.4.051.8.037,1.2.051a4.818,4.818,0,0,0,1.737-.315c.241-.088.251-.1.251-.352-.008-1.043-.008-2.087-.008-3.144Z" transform="translate(-273.058 -147.1)" fill="#fff"/>
      <path id="Path_61396" data-name="Path 61396" d="M657.544,11.335c-.05.516-.076,1.032-.138,1.548-.05.44-.12.894-.214,1.323s-.214.855-.339,1.283c-.189.6-.4,1.2-.629,1.774a9.681,9.681,0,0,1-.5,1.108c-.3.592-.629,1.182-.956,1.761-.2.361-.453.7-.68,1.044a.24.24,0,0,1-.277.113c-.39-.113-.8-.189-1.182-.327-.73-.265-1.459-.528-2.177-.842a18.176,18.176,0,0,1-3.988-2.353,12.489,12.489,0,0,1-2.051-2.025,9.608,9.608,0,0,1-1.108-1.761,9.511,9.511,0,0,1-.579-1.548,10.14,10.14,0,0,1-.277-3.309,9.686,9.686,0,0,1,.176-1.334c.088-.516.2-1.019.327-1.523a12.624,12.624,0,0,1,.428-1.334,19.883,19.883,0,0,1,1.737-3.661c.241-.4.516-.781.767-1.182a.226.226,0,0,1,.29-.1c.6.189,1.221.361,1.825.566.453.152.894.339,1.323.528.481.214.968.428,1.422.68.516.277,1.019.566,1.5.88.541.361,1.069.755,1.6,1.157a9.474,9.474,0,0,1,.919.818,10.926,10.926,0,0,1,1.271,1.564,9.05,9.05,0,0,1,.868,1.61,8.051,8.051,0,0,1,.481,1.6,8.36,8.36,0,0,1,.175,1.938C657.519,11.335,657.531,11.335,657.544,11.335ZM644.875,9.9c.012.241.037.481.051.722a5.636,5.636,0,0,0,.528,2.138,7.778,7.778,0,0,0,2.177,2.766,13.734,13.734,0,0,0,1.623,1.182A21.354,21.354,0,0,0,651.3,17.8c.453.2.919.378,1.371.553.189.076.214.076.3-.1.29-.579.579-1.17.855-1.749a8.941,8.941,0,0,0,.39-.956c.12-.352.241-.722.339-1.069s.176-.7.251-1.057a6.9,6.9,0,0,0,.138-.868c.037-.4.088-.818.088-1.221a11.061,11.061,0,0,0-.1-1.157,6,6,0,0,0-.943-2.516A8.78,8.78,0,0,0,651.955,5.5a16.347,16.347,0,0,0-1.359-.944,15.943,15.943,0,0,0-1.435-.793c-.579-.277-1.182-.516-1.762-.767-.352-.152-.352-.152-.528.2a.012.012,0,0,1-.012.012,16.837,16.837,0,0,0-1.083,2.378,14.588,14.588,0,0,0-.666,2.3,10.606,10.606,0,0,0-.236,2.015Z" transform="translate(-561.59 0.03)" fill="#fff"/>
      <path id="Path_61397" data-name="Path 61397" d="M447.751,171.851a2.448,2.448,0,0,1-.29-.176,4.181,4.181,0,0,0-1.346-.6,3.322,3.322,0,0,0-1.887-.012,1.981,1.981,0,0,0-1.384,1.359,2.287,2.287,0,0,0-.037,1.233,2.057,2.057,0,0,0,.7,1.108,4.76,4.76,0,0,0,1.283.767,18.115,18.115,0,0,1,1.875.88,5.182,5.182,0,0,1,2.035,1.959,3.539,3.539,0,0,1,.378,1.019,5.6,5.6,0,0,1,.138,1.3,4.657,4.657,0,0,1-.5,2.1,4.945,4.945,0,0,1-1.233,1.563,5.92,5.92,0,0,1-2.553,1.246,7.927,7.927,0,0,1-2.113.189,10.291,10.291,0,0,1-1.51-.176,7.924,7.924,0,0,1-1.535-.428,10.135,10.135,0,0,1-1.044-.528c-.164-.088-.164-.152-.1-.3.241-.592.491-1.17.73-1.761.051-.113.076-.214.12-.327.063-.152.113-.176.251-.076a5.084,5.084,0,0,0,1.044.528,5.81,5.81,0,0,0,1.308.3,4.388,4.388,0,0,0,1.283-.025,2.19,2.19,0,0,0,1.8-1.585,2.406,2.406,0,0,0-.277-2.025,2.766,2.766,0,0,0-1.157-.962c-.44-.214-.906-.39-1.359-.592a6.66,6.66,0,0,1-2.013-1.246,4.089,4.089,0,0,1-1.182-1.875,5.162,5.162,0,0,1-.1-2.277,4.6,4.6,0,0,1,2.277-3.247,6.113,6.113,0,0,1,2.039-.692,1.806,1.806,0,0,1,.361-.012h1.271a6.543,6.543,0,0,1,2.025.361c.164.05.327.12.491.176a.3.3,0,0,1,.226.327c-.012.617,0,1.233,0,1.862v.428A1.453,1.453,0,0,1,447.751,171.851Z" transform="translate(-383.401 -147.277)" fill="#fff"/>
      <path id="Path_61398" data-name="Path 61398" d="M135.8,122.23V110.323c0-.327,0-.327.327-.327h3.258c.265,0,.277.012.277.277v24.043a.162.162,0,0,1-.152.152h-3.548c-.1,0-.152-.051-.152-.164v-.2Q135.794,128.162,135.8,122.23Z" transform="translate(-118.706 -96.158)" fill="#fff"/>
      <path id="Path_61399" data-name="Path 61399" d="M548.8,177.543v-7.6a.4.4,0,0,1,.277-.44,10.683,10.683,0,0,1,2.039-.654c.361-.076.742-.12,1.108-.189a19.724,19.724,0,0,1,3.749-.189c.189,0,.214.025.214.214v2.341c0,.2-.076.251-.277.189a6.109,6.109,0,0,0-1.145-.214,4.586,4.586,0,0,0-1.6.164,1.066,1.066,0,0,0-.175.076c-.352.138-.352.138-.352.528v13.513c0,.176-.037.214-.214.226h-3.309c-.314,0-.314,0-.314-.315Z" transform="translate(-479.746 -147.269)" fill="#fff"/>
      <path id="Path_61400" data-name="Path 61400" d="M677.134,362.214c0-.05.012-.113.012-.164v-5.586c0-.088.037-.15.138-.15h1.132c.1,0,.138.05.138.15v8.479c-.012.176-.037.2-.214.2h-.956a.254.254,0,0,1-.251-.138c-.466-.8-.944-1.622-1.422-2.428-.214-.361-.428-.722-.641-1.069-.4-.68-.793-1.359-1.2-2.039a7.567,7.567,0,0,0-.454-.722v6.127c0,.265-.012.265-.265.265h-.944c-.189,0-.214-.025-.214-.214v-8.467c0-.113.05-.164.164-.164h1.3a.241.241,0,0,1,.214.138c.189.327.39.642.578.968.481.818.968,1.636,1.443,2.453.428.73.855,1.459,1.271,2.189a1.022,1.022,0,0,0,.1.152.35.35,0,0,0,.068.018Z" transform="translate(-587.446 -311.471)" fill="#fff"/>
      <path id="Path_61401" data-name="Path 61401" d="M510.589,360.728v4.265c0,.1-.051.164-.15.164h-1.384c-.088,0-.138-.037-.138-.12v-3.712c0-.113-.063-.164-.176-.164h-2.214c-.339,0-.339,0-.339.327v3.488c0,.12-.051.176-.176.176H504.7c-.176,0-.2-.037-.2-.214v-8.419c0-.189.025-.2.2-.2h1.27c.2,0,.214.012.214.214v3.322c0,.164.012.176.176.176H508.7c.176,0,.2-.025.2-.226v-3.347c0-.1.037-.151.138-.151h1.384c.1,0,.152.051.152.164v.176C510.589,358,510.589,359.369,510.589,360.728Z" transform="translate(-441.018 -311.469)" fill="#fff"/>
      <path id="Path_61402" data-name="Path 61402" d="M602.514,359.7a6,6,0,0,1,.12-1.573,4.171,4.171,0,0,1,1.019-2.1,2.631,2.631,0,0,1,1.2-.722,3.738,3.738,0,0,1,1.623-.076,2.646,2.646,0,0,1,1.737,1.032,3.964,3.964,0,0,1,.7,1.509,8.3,8.3,0,0,1,.2,2.73,5.5,5.5,0,0,1-.491,2.013,2.863,2.863,0,0,1-2.064,1.7,3.4,3.4,0,0,1-1.182.051,2.84,2.84,0,0,1-2.113-1.283,5.307,5.307,0,0,1-.781-2.857A2.458,2.458,0,0,0,602.514,359.7Zm1.723.05a5.9,5.9,0,0,0,.189,1.912,2.2,2.2,0,0,0,.567,1.032,1.3,1.3,0,0,0,1.323.226,1.443,1.443,0,0,0,.818-.919,4.638,4.638,0,0,0,.3-1.548,8.663,8.663,0,0,0-.189-2.73,2.178,2.178,0,0,0-.39-.868,1.241,1.241,0,0,0-1.484-.44,1.3,1.3,0,0,0-.642.578,4.233,4.233,0,0,0-.491,1.862C604.225,359.143,604.238,359.416,604.238,359.747Z" transform="translate(-526.691 -310.488)" fill="#fff"/>
      <path id="Path_61403" data-name="Path 61403" d="M749.078,141.212a14.362,14.362,0,0,1-2.076-.241c-.138-.025-.265-.063-.4-.088a.326.326,0,0,1-.277-.327,9.215,9.215,0,0,1,.063-2.039c.076-.415.113-.83.214-1.246a6.339,6.339,0,0,1,.641-1.61,4.968,4.968,0,0,1,1.094-1.309,4.367,4.367,0,0,1,1.359-.755,7.753,7.753,0,0,1,3.032-.39c.415.025.818.1,1.233.164.226.037.44.088.666.12s.277.1.29.327c.012.29.037.566.037.855a10.368,10.368,0,0,1-.265,2.24,6.473,6.473,0,0,1-.78,1.963,4.4,4.4,0,0,1-2.265,1.862,5.249,5.249,0,0,1-1.459.339C749.834,141.14,749.456,141.175,749.078,141.212Zm-.012-1.283v-.051a5.171,5.171,0,0,0,2.051-.29,3.127,3.127,0,0,0,1.85-1.611,5.783,5.783,0,0,0,.6-1.988c.051-.4.062-.8.1-1.2a.159.159,0,0,0-.164-.2l-.642-.076a6.441,6.441,0,0,0-2.718.277,3.138,3.138,0,0,0-1.749,1.41,6.255,6.255,0,0,0-.617,1.636,9.777,9.777,0,0,0-.214,1.7c-.012.189,0,.226.189.251.444.059.871.1,1.313.147Z" transform="translate(-652.395 -116.437)" fill="#fff"/>
      <path id="Path_61404" data-name="Path 61404" d="M382.054,362.831h-1.2c-.2,0-.241.037-.29.241-.113.39-.241.767-.361,1.145-.076.241-.15.465-.226.7a.181.181,0,0,1-.2.138h-1.157c-.152,0-.2-.062-.152-.214.1-.339.214-.666.327-1.007.152-.453.3-.919.453-1.371.138-.415.29-.83.428-1.258.176-.541.361-1.082.541-1.622.214-.654.44-1.309.654-1.963.138-.415.29-.842.415-1.258a.206.206,0,0,1,.225-.166h1.233a.241.241,0,0,1,.265.189c.214.68.44,1.346.666,2.013.339,1.032.68,2.076,1.019,3.108.189.592.39,1.182.579,1.774.152.466.314.919.465,1.384a.012.012,0,0,0,.012.012c.113.327.088.352-.265.352h-1.157c-.214,0-.226-.012-.29-.214-.189-.617-.39-1.233-.567-1.862a.192.192,0,0,0-.214-.164C382.858,362.831,382.457,362.831,382.054,362.831Zm.025-4.843c-.025.025-.037.037-.037.063-.164.6-.327,1.2-.5,1.8-.176.579-.352,1.145-.541,1.724-.051.152-.025.2.12.214h1.887c.138,0,.151-.037.113-.176-.05-.164-.1-.339-.15-.5-.113-.39-.226-.767-.34-1.157s-.226-.8-.339-1.221c-.071-.259-.133-.5-.209-.749Z" transform="translate(-330.826 -311.383)" fill="#fff"/>
      <path id="Path_61405" data-name="Path 61405" d="M450.939,355.131a3.1,3.1,0,0,1,1.572.315c.277.12.3.2.189.481-.076.176-.113.352-.189.528-.076.2-.1.2-.29.113a2.418,2.418,0,0,0-1.283-.3,1.153,1.153,0,0,0-.968.567,1.247,1.247,0,0,0,.29,1.585,4.742,4.742,0,0,0,.993.541,3.57,3.57,0,0,1,1.443,1.069,2.1,2.1,0,0,1,.415,1.095,2.865,2.865,0,0,1-.361,1.786,2.411,2.411,0,0,1-1.3,1.069,4.235,4.235,0,0,1-2.919-.076.823.823,0,0,1-.378-.226c-.12-.12.025-.264.063-.4.063-.226.152-.44.226-.666.037-.1.1-.12.2-.063a2.738,2.738,0,0,0,1.132.327,1.47,1.47,0,0,0,1.258-.4,1.293,1.293,0,0,0-.164-1.887,5.019,5.019,0,0,0-.993-.528,3.014,3.014,0,0,1-1.283-.994,1.937,1.937,0,0,1-.39-1.108v-.378a2.382,2.382,0,0,1,1.258-2.165,2.1,2.1,0,0,1,1.17-.315A.608.608,0,0,0,450.939,355.131Z" transform="translate(-391.722 -310.414)" fill="#fff"/>
      <path id="Path_61406" data-name="Path 61406" d="M339.4,360.8V356.52c0-.088.05-.12.138-.12h4.051a.143.143,0,0,1,.151.163v.781c0,.15-.062.189-.241.189h-2.165c-.214,0-.251.025-.251.226v2.152c0,.176.025.2.214.2h1.862c.265,0,.277.012.277.277v.567c0,.29-.012.29-.3.29h-1.761c-.265,0-.29.025-.29.29v3.535a.143.143,0,0,1-.164.152h-1.371a.136.136,0,0,1-.15-.138V360.8Z" transform="translate(-296.69 -311.558)" fill="#fff"/>
      <path id="Path_61407" data-name="Path 61407" d="M573.3,360.928v4.24c.012.138-.063.189-.189.189H571.73c-.2,0-.226-.025-.226-.226v-8.454c.012-.164.025-.176.189-.176h1.41c.189,0,.2.025.214.226v.68C573.3,358.564,573.3,359.747,573.3,360.928Z" transform="translate(-499.588 -311.644)" fill="#fff"/>
    </g>
    <rect id="Rectangle_20446-2" data-name="Rectangle 20446" width="156" height="78" transform="translate(971 107)" fill="none"/>
  </g>
</svg>
