<svg xmlns="http://www.w3.org/2000/svg" xmlns:xlink="http://www.w3.org/1999/xlink" width="156" height="78" viewBox="0 0 156 78">
  <defs>
    <clipPath id="clip-path">
      <rect id="Rectangle_1" data-name="Rectangle 1" width="127" height="16" transform="translate(0.095 0.337)" fill="#fff"/>
    </clipPath>
  </defs>
  <g id="Group_46769" data-name="Group 46769" transform="translate(-971 -303)">
    <rect id="Rectangle_20446" data-name="Rectangle 20446" width="156" height="78" transform="translate(971 303)" fill="none"/>
    <g id="Mask_Group_1" data-name="Mask Group 1" transform="translate(985.904 333.663)" clip-path="url(#clip-path)">
      <path id="Path_9365" data-name="Path 9365" d="M67.373,45.087a1.368,1.368,0,0,1-1.18.656H62.425a.07.07,0,0,1-.063-.039.074.074,0,0,1,0-.077L67.95,36.95a2.055,2.055,0,0,1,1.772-.985h5.923a2.055,2.055,0,0,1,1.772.985L83,45.627a.074.074,0,0,1,0,.077.07.07,0,0,1-.063.039H79.176a1.37,1.37,0,0,1-1.182-.656l-1.439-2.23a.17.17,0,0,0-.148-.082H70.588a.069.069,0,0,1-.063-.04.077.077,0,0,1,0-.076l.9-1.4a.175.175,0,0,1,.148-.082h3.763a.07.07,0,0,0,.063-.039.073.073,0,0,0,0-.076l-2.04-3.169a.684.684,0,0,0-.59-.328h-.182a.685.685,0,0,0-.59.328Zm-6.18-4.031v4.5a.184.184,0,0,1-.18.188H48.366c-7.271,0-7.159-4.377-7.159-4.889s-.112-4.889,7.159-4.889H61.014a.184.184,0,0,1,.18.188V37.4a.184.184,0,0,1-.179.189H49.979c-3.322,0-3.992,1.707-3.992,3.281s.669,3.282,3.992,3.282H56.56a.185.185,0,0,0,.181-.189h0v-2.9a.185.185,0,0,1,.181-.188h4.091a.184.184,0,0,1,.18.188h0Zm73.046-.925h10.846a.185.185,0,0,1,.18.188V41.4a.185.185,0,0,1-.18.188H134.239a.412.412,0,0,1-.4-.411v-.63a.405.405,0,0,1,.391-.42h.007Zm-7.616.728c0-.514-.112-4.889,7.158-4.889h12.463a.185.185,0,0,1,.181.188V37.4a.185.185,0,0,1-.181.188H135.4c-3.312,0-3.987,1.7-3.992,3.268s.679,3.268,3.992,3.268h10.845a.185.185,0,0,1,.181.188v1.241a.185.185,0,0,1-.181.188H133.781c-7.272,0-7.159-4.378-7.159-4.889ZM84.361,45.748h4.095a.185.185,0,0,0,.181-.186c.031-2.59,0-5.2,0-7.791a.184.184,0,0,1,.18-.188H95.4c3.323,0,3.992,1.138,3.992,2.189s-.669,2.189-3.992,2.189H90.53a.186.186,0,0,0-.181.189V43.4a.185.185,0,0,0,.181.188h6.478c7.271,0,7.159-3.413,7.159-3.811s.113-3.811-7.159-3.811H84.36a.185.185,0,0,0-.18.188v9.406a.185.185,0,0,0,.18.188Zm21.119,0h4.093a.185.185,0,0,0,.181-.186c.031-2.59,0-5.2,0-7.791a.185.185,0,0,1,.181-.188h6.581c3.323,0,3.992,1.138,3.992,2.189s-.669,2.189-3.992,2.189h-4.86a.186.186,0,0,0-.181.189h0V43.4a.185.185,0,0,0,.181.188h6.478c7.271,0,7.159-3.413,7.159-3.811s.113-3.811-7.159-3.811H105.489a.185.185,0,0,0-.181.188v9.406a.185.185,0,0,0,.173.188Zm-79.458-.655a1.368,1.368,0,0,1-1.181.656H21.074a.07.07,0,0,1-.063-.039.074.074,0,0,1,0-.077L26.6,36.955a2.055,2.055,0,0,1,1.772-.985h5.924a2.055,2.055,0,0,1,1.772.985l5.588,8.677a.074.074,0,0,1,0,.077.07.07,0,0,1-.063.039H37.822a1.369,1.369,0,0,1-1.182-.656L35.2,42.862a.171.171,0,0,0-.148-.082H29.245a.069.069,0,0,1-.063-.04.077.077,0,0,1,0-.076l.9-1.4a.171.171,0,0,1,.148-.082h3.765a.07.07,0,0,0,.063-.039.077.077,0,0,0,0-.076L32.016,37.9a.685.685,0,0,0-.59-.328h-.182a.685.685,0,0,0-.59.328Z" transform="translate(-20.808 -32.74)" fill="#fff" fill-rule="evenodd"/>
    </g>
    <rect id="Rectangle_20446-2" data-name="Rectangle 20446" width="156" height="78" transform="translate(971 303)" fill="none"/>
  </g>
</svg>
