<svg id="Icon_simple-youtube" data-name="Icon simple-youtube" xmlns="http://www.w3.org/2000/svg" width="29.538" height="20.644" viewBox="0 0 29.538 20.644">
  <path id="Icon_simple-youtube-2" data-name="Icon simple-youtube" d="M28.928,8.612a3.7,3.7,0,0,0-2.571-2.571c-2.3-.617-11.568-.617-11.568-.617s-9.243-.012-11.568.617A3.7,3.7,0,0,0,.65,8.612a38.473,38.473,0,0,0-.643,7.147,38.472,38.472,0,0,0,.643,7.12A3.7,3.7,0,0,0,3.221,25.45c2.3.618,11.568.618,11.568.618s9.241,0,11.568-.618a3.7,3.7,0,0,0,2.571-2.571,38.472,38.472,0,0,0,.616-7.12,38.473,38.473,0,0,0-.616-7.147ZM11.832,20.18V11.324l7.712,4.435Z" transform="translate(-0.007 -5.424)" fill="#cbcbcb"/>
</svg>
